<?xml version="1.0" encoding="utf-8"?>
<!-- Generator: Adobe Illustrator 16.0.1, SVG Export Plug-In . SVG Version: 6.00 Build 0)  -->
<!DOCTYPE svg PUBLIC "-//W3C//DTD SVG 1.1//EN" "http://www.w3.org/Graphics/SVG/1.1/DTD/svg11.dtd">
<svg version="1.1" id="Layer_1" xmlns="http://www.w3.org/2000/svg" xmlns:xlink="http://www.w3.org/1999/xlink" x="0px" y="0px"
	 width="134.844px" height="134.831px" viewBox="0 0 134.844 134.831" enable-background="new 0 0 134.844 134.831"
	 xml:space="preserve">
<g>
	<path fill="#00BF00" d="M67.571,13.558c-0.714,0-1.292,0.578-1.292,1.292c0,0.713,0.578,1.292,1.292,1.292
		c28.111,0,51.045,22.528,51.736,50.478h-7.016c-0.714,0-1.293,0.578-1.293,1.292s0.579,1.293,1.293,1.293h7.016
		c-0.679,27.43-22.785,49.62-50.179,50.438v-7.143c0-0.713-0.58-1.293-1.292-1.293c-0.713,0-1.293,0.58-1.293,1.293v7.155
		c-27.639-0.542-50.026-22.844-50.708-50.45h7.43c0.714,0,1.292-0.579,1.292-1.293s-0.578-1.292-1.292-1.292h-7.438
		c0.25-10.297,3.475-20.081,9.387-28.468l0.766,7.132c0.072,0.662,0.631,1.154,1.283,1.154c0.047,0,0.092-0.002,0.141-0.007
		c0.708-0.077,1.222-0.714,1.146-1.424l-1.05-9.779c-0.075-0.7-0.695-1.202-1.398-1.149l-9.348,0.821
		c-0.711,0.062-1.236,0.688-1.174,1.399c0.062,0.711,0.685,1.243,1.4,1.174l5.912-0.519c-6.334,9.111-9.673,19.77-9.673,30.957
		c0,29.971,24.382,54.353,54.353,54.353c29.969,0,54.353-24.382,54.353-54.353C121.924,37.94,97.54,13.558,67.571,13.558z"/>
	<path fill="#00BF00" d="M67.427,0C30.248,0,0,30.236,0,67.401c0,37.179,30.248,67.43,67.427,67.43
		c37.173,0,67.417-30.251,67.417-67.43C134.844,30.236,104.601,0,67.427,0z M67.427,132.893c-36.11,0-65.489-29.38-65.489-65.492
		c0-36.095,29.379-65.463,65.489-65.463c36.103,0,65.478,29.368,65.478,65.463C132.905,103.513,103.53,132.893,67.427,132.893z"/>
	<path fill="#00BF00" d="M47.808,24.727c0.102,0.25,0.343,0.402,0.599,0.402c0.081,0,0.163-0.015,0.243-0.048
		c0.33-0.134,0.49-0.511,0.354-0.842l-0.73-1.795c-0.134-0.332-0.514-0.491-0.841-0.354c-0.331,0.134-0.49,0.51-0.354,0.842
		L47.808,24.727z"/>
	<path fill="#00BF00" d="M58.663,51.406c0.101,0.25,0.343,0.404,0.598,0.404c0.081,0,0.164-0.015,0.243-0.048
		c0.33-0.134,0.49-0.511,0.354-0.842l-1.357-3.335c-0.134-0.331-0.514-0.49-0.841-0.354c-0.332,0.134-0.49,0.511-0.355,0.842
		L58.663,51.406z"/>
	<path fill="#00BF00" d="M61.376,58.078c0.103,0.25,0.344,0.402,0.599,0.402c0.081,0,0.165-0.015,0.244-0.047
		c0.33-0.135,0.488-0.511,0.354-0.843l-1.356-3.335c-0.135-0.331-0.514-0.487-0.843-0.355c-0.33,0.135-0.49,0.512-0.355,0.843
		L61.376,58.078z"/>
	<path fill="#00BF00" d="M64.09,64.748c0.101,0.25,0.343,0.404,0.599,0.404c0.081,0,0.163-0.015,0.243-0.048
		c0.33-0.135,0.49-0.511,0.354-0.843l-1.356-3.334c-0.134-0.33-0.514-0.491-0.842-0.354c-0.332,0.134-0.49,0.511-0.355,0.841
		L64.09,64.748z"/>
	<path fill="#00BF00" d="M50.521,31.396c0.103,0.25,0.344,0.402,0.598,0.402c0.081,0,0.165-0.015,0.245-0.048
		c0.33-0.134,0.489-0.511,0.354-0.842l-1.358-3.335c-0.133-0.33-0.514-0.49-0.841-0.354c-0.33,0.134-0.49,0.511-0.354,0.841
		L50.521,31.396z"/>
	<path fill="#00BF00" d="M53.235,38.066c0.102,0.25,0.343,0.402,0.599,0.402c0.081,0,0.164-0.015,0.243-0.048
		c0.33-0.134,0.49-0.511,0.354-0.842l-1.356-3.334c-0.134-0.332-0.514-0.491-0.841-0.355c-0.332,0.135-0.49,0.511-0.355,0.841
		L53.235,38.066z"/>
	<path fill="#00BF00" d="M55.949,44.736c0.103,0.25,0.344,0.402,0.599,0.402c0.081,0,0.164-0.015,0.244-0.047
		c0.33-0.135,0.488-0.511,0.354-0.842l-1.357-3.334c-0.133-0.331-0.514-0.491-0.842-0.354c-0.33,0.134-0.49,0.51-0.354,0.842
		L55.949,44.736z"/>
	<path fill="#00BF00" d="M66.177,69.879c0.102,0.245,0.34,0.402,0.599,0.402c0.041,0,0.082-0.004,0.124-0.013
		c0.302-0.06,0.521-0.325,0.521-0.634v-1.939c0-0.357-0.289-0.645-0.646-0.645c-0.184,0-0.349,0.076-0.467,0.198
		c-0.156-0.068-0.338-0.078-0.508-0.009c-0.33,0.136-0.489,0.511-0.354,0.843L66.177,69.879z"/>
	<path fill="#00BF00" d="M66.775,47.269c0.357,0,0.646-0.289,0.646-0.646v-4.215c0-0.357-0.289-0.646-0.646-0.646
		s-0.646,0.29-0.646,0.646v4.215C66.129,46.98,66.418,47.269,66.775,47.269z"/>
	<path fill="#00BF00" d="M66.775,64.127c0.357,0,0.646-0.289,0.646-0.646v-4.215c0-0.357-0.289-0.646-0.646-0.646
		s-0.646,0.289-0.646,0.646v4.215C66.129,63.839,66.418,64.127,66.775,64.127z"/>
	<path fill="#00BF00" d="M66.775,55.697c0.357,0,0.646-0.289,0.646-0.645v-4.215c0-0.357-0.289-0.646-0.646-0.646
		s-0.646,0.289-0.646,0.646v4.215C66.129,55.409,66.418,55.697,66.775,55.697z"/>
	<path fill="#00BF00" d="M66.775,38.838c0.357,0,0.646-0.289,0.646-0.646v-1.938c0-0.357-0.289-0.646-0.646-0.646
		s-0.646,0.289-0.646,0.646v1.938C66.129,38.55,66.418,38.838,66.775,38.838z"/>
</g>
</svg>
