<?xml version="1.0" encoding="utf-8"?>
<!-- Generator: Adobe Illustrator 16.0.1, SVG Export Plug-In . SVG Version: 6.00 Build 0)  -->
<!DOCTYPE svg PUBLIC "-//W3C//DTD SVG 1.1//EN" "http://www.w3.org/Graphics/SVG/1.1/DTD/svg11.dtd">
<svg version="1.1" id="Layer_1" xmlns="http://www.w3.org/2000/svg" xmlns:xlink="http://www.w3.org/1999/xlink" x="0px" y="0px"
	 width="187.579px" height="161.555px" viewBox="0 0 187.579 161.555" enable-background="new 0 0 187.579 161.555"
	 xml:space="preserve">
<g>
	<path fill="#FF7700" d="M186.125,62.598c-1.744-2.057-4.87-3.324-9.043-3.663c-0.752-0.061-1.518-0.051-2.332,0.023
		c0.575-0.591,1.074-1.194,1.495-1.807c2.374-3.441,3.37-6.663,2.882-9.316c-0.3-1.626-1.155-2.966-2.475-3.874
		c-1.008-0.694-2.135-1.046-3.351-1.046c-2.991,0-6.129,2.169-8.831,6.1c-0.43,0.616-0.82,1.299-1.169,2.046
		c-0.225-0.788-0.499-1.523-0.821-2.2c-2.262-4.778-5.429-7.518-8.689-7.518c-0.87,0-1.718,0.195-2.515,0.576
		c-1.452,0.685-2.514,1.869-3.071,3.427c-0.909,2.538-0.44,5.878,1.352,9.655c0.318,0.675,0.713,1.348,1.188,2.024
		c-0.805-0.207-1.579-0.339-2.319-0.397c-0.639-0.051-1.265-0.076-1.862-0.076c-6.817,0-9.509,3.266-9.754,6.319
		c-0.133,1.599,0.363,3.11,1.434,4.372c1.747,2.056,4.874,3.317,9.038,3.647c0.761,0.066,1.532,0.06,2.343-0.01
		c-0.575,0.591-1.076,1.194-1.5,1.808c-2.371,3.438-3.365,6.656-2.875,9.31c0.3,1.629,1.158,2.972,2.48,3.879
		c1.003,0.689,2.125,1.039,3.337,1.039c2.989,0,6.127-2.164,8.832-6.088c0.434-0.618,0.823-1.302,1.174-2.056
		c0.225,0.794,0.497,1.526,0.815,2.193c3.095,6.548,6.782,7.525,8.704,7.525c0.866,0,1.712-0.191,2.515-0.569
		c1.881-0.892,3.095-2.632,3.419-4.9c0.328-2.301-0.266-5.132-1.714-8.181c-0.317-0.679-0.711-1.354-1.185-2.031
		c0.791,0.2,1.559,0.329,2.3,0.388c0.652,0.054,1.292,0.079,1.902,0.079c6.802,0,9.486-3.262,9.728-6.31
		C187.69,65.371,187.195,63.859,186.125,62.598z M176.096,71.091c-1.699-0.132-3.589-0.715-5.622-1.73
		c-0.47-0.235-1.041-0.09-1.34,0.341c-0.3,0.432-0.239,1.017,0.144,1.376c1.702,1.599,2.919,3.167,3.621,4.668
		c1.271,2.678,1.802,5.092,1.533,6.979c-0.223,1.565-0.994,2.701-2.228,3.286c-0.518,0.244-1.06,0.368-1.612,0.368
		c-2.419,0-4.896-2.301-6.794-6.319c-0.72-1.505-1.165-3.438-1.325-5.748c-0.037-0.523-0.45-0.94-0.972-0.981
		c-0.028-0.002-0.057-0.003-0.084-0.003c-0.488,0-0.918,0.336-1.03,0.819c-0.533,2.308-1.259,4.098-2.225,5.476
		c-2.304,3.342-4.823,5.182-7.095,5.182c-0.775,0-1.495-0.225-2.14-0.668c-0.861-0.591-1.399-1.439-1.599-2.52
		c-0.38-2.059,0.522-4.803,2.537-7.724c0.961-1.394,2.418-2.748,4.33-4.028c0.437-0.292,0.592-0.86,0.365-1.336
		c-0.227-0.474-0.77-0.71-1.27-0.551c-1.79,0.562-3.444,0.846-4.92,0.846c-0.306,0-0.609-0.011-0.915-0.037
		c-3.545-0.282-6.244-1.315-7.599-2.91c-0.709-0.836-1.025-1.787-0.939-2.831c0.247-3.065,3.833-4.741,9.342-4.307
		c1.662,0.131,3.561,0.714,5.641,1.735c0.47,0.23,1.038,0.083,1.336-0.347c0.297-0.431,0.236-1.013-0.145-1.373
		c-1.703-1.602-2.92-3.167-3.621-4.655c-1.525-3.215-1.979-6.069-1.273-8.039c0.369-1.032,1.035-1.781,1.987-2.229
		c0.516-0.247,1.056-0.372,1.607-0.372c2.409,0,4.879,2.299,6.778,6.309c0.739,1.556,1.186,3.492,1.326,5.755
		c0.033,0.526,0.447,0.947,0.972,0.989c0.53,0.032,1-0.31,1.116-0.822c0.501-2.233,1.249-4.071,2.226-5.469
		c2.301-3.346,4.819-5.189,7.093-5.189c0.779,0,1.503,0.227,2.152,0.673c0.859,0.591,1.395,1.437,1.593,2.514
		c0.379,2.06-0.523,4.805-2.544,7.734c-0.95,1.387-2.401,2.736-4.313,4.01c-0.437,0.291-0.594,0.856-0.37,1.33
		c0.223,0.474,0.76,0.714,1.262,0.562c2.203-0.667,4.128-0.946,5.833-0.811c3.547,0.288,6.246,1.326,7.599,2.923
		c0.708,0.834,1.023,1.786,0.937,2.83C185.206,69.862,181.633,71.537,176.096,71.091z"/>
	<path fill="#FF7700" d="M161.969,58.569c-3.273,0-5.936,2.662-5.936,5.935s2.663,5.936,5.936,5.936s5.936-2.663,5.936-5.936
		S165.242,58.569,161.969,58.569z M161.969,68.324c-2.107,0-3.821-1.714-3.821-3.82c0-2.107,1.714-3.82,3.821-3.82
		c2.106,0,3.821,1.713,3.821,3.82C165.79,66.61,164.076,68.324,161.969,68.324z"/>
	<path fill="#FF7700" d="M92.764,47.064c0.174,0.112,0.373,0.168,0.572,0.168c0.202,0,0.403-0.058,0.579-0.173
		c0.244-0.16,6.047-3.983,11.943-9.949c8.013-8.108,12.076-15.9,12.076-23.163c0-7.69-6.258-13.948-13.949-13.948
		c-4.126,0-8.011,1.824-10.649,4.94C90.698,1.824,86.813,0,82.687,0c-7.691,0-13.948,6.257-13.948,13.948
		c0,7.379,4.063,15.208,12.077,23.27C86.714,43.151,92.519,46.907,92.764,47.064z M93.331,44.898
		C90.555,42.997,78.533,34.333,73.302,23.6h7.796c0.47,0,0.883-0.31,1.015-0.761l3.294-11.285l5.5,22.079
		c0.111,0.446,0.498,0.769,0.956,0.8c0.023,0.001,0.047,0.002,0.07,0.002c0.432,0,0.823-0.263,0.983-0.668l3.285-8.299h16.11
		C106.668,35.241,95.929,43.09,93.331,44.898z M82.687,2.115c3.911,0,7.565,1.931,9.776,5.166c0.197,0.289,0.523,0.46,0.873,0.46
		c0.349,0,0.676-0.172,0.873-0.46c2.211-3.234,5.865-5.166,9.776-5.166c6.525,0,11.833,5.309,11.833,11.833
		c0,3.208-0.914,6.381-2.376,9.404H95.484c-0.434,0-0.824,0.265-0.983,0.668l-2.337,5.904L86.515,7.247
		c-0.116-0.464-0.527-0.792-1.005-0.802c-0.007,0-0.014,0-0.021,0c-0.469,0-0.883,0.309-1.015,0.761l-4.168,14.279H72.38
		c-0.952-2.443-1.526-4.972-1.526-7.538C70.854,7.423,76.162,2.115,82.687,2.115z"/>
	<path fill="#FF7700" d="M102.703,67.07v-9.148c0-0.778-0.631-1.41-1.41-1.41H87.405c-0.778,0-1.41,0.632-1.41,1.41v9.108
		c-22.346,3.916-39.387,23.447-39.387,46.897c0,26.262,21.365,47.627,47.626,47.627s47.626-21.365,47.626-47.627
		C141.862,90.558,124.937,71.08,102.703,67.07z M88.815,59.332h11.068v7.315c-1.854-0.22-3.736-0.346-5.648-0.346
		c-1.833,0-3.64,0.114-5.42,0.317V59.332z M95.873,158.693v-8.34c0-0.778-0.631-1.41-1.41-1.41c-0.779,0-1.41,0.632-1.41,1.41v8.351
		c-23.69-0.618-42.852-19.704-43.588-43.366h8.572c0.778,0,1.41-0.631,1.41-1.41c0-0.778-0.631-1.41-1.41-1.41h-8.572
		c0.737-23.66,19.898-42.747,43.588-43.365v8.35c0,0.779,0.631,1.41,1.41,1.41c0.778,0,1.41-0.631,1.41-1.41v-8.339
		c23.481,0.85,42.401,19.846,43.133,43.354h-8.117c-0.779,0-1.41,0.632-1.41,1.41c0,0.779,0.631,1.41,1.41,1.41h8.117
		C138.274,138.849,119.354,157.844,95.873,158.693z"/>
	<path fill="#FF7700" d="M102.878,116.107c0.177-0.699,0.281-1.427,0.281-2.18c0-4.92-4.003-8.924-8.923-8.924
		c-1.132,0-2.211,0.221-3.208,0.607L70.276,89.704c-0.567-0.436-1.368-0.376-1.867,0.133c-0.499,0.512-0.537,1.314-0.089,1.87
		l17.058,21.18c-0.04,0.342-0.066,0.688-0.066,1.041c0,4.921,4.003,8.924,8.923,8.924c0.72,0,1.417-0.095,2.087-0.258l21.02,16.074
		c0.255,0.194,0.556,0.29,0.856,0.29c0.368,0,0.734-0.143,1.008-0.424c0.499-0.51,0.539-1.31,0.094-1.865L102.878,116.107z
		 M77.889,99.093l10.537,8.075c-0.814,0.703-1.505,1.543-2.025,2.492L77.889,99.093z M88.132,113.928
		c0-3.365,2.738-6.104,6.104-6.104c3.365,0,6.104,2.738,6.104,6.104s-2.738,6.104-6.104,6.104
		C90.87,120.031,88.132,117.293,88.132,113.928z M99.264,121.293c0.904-0.618,1.687-1.4,2.31-2.301l8.347,10.45L99.264,121.293z"/>
	<path fill="#FF7700" d="M51.369,64.092c2.01-2.01,2.016-5.277,0.011-7.282l-0.877-0.877c0.878-0.183,1.687-0.616,2.337-1.266
		c0.876-0.877,1.361-2.043,1.363-3.284c0.002-1.242-0.479-2.408-1.354-3.284l-1.221-1.221c0.875-1.12,1.356-2.486,1.359-3.929
		c0.004-1.715-0.66-3.325-1.871-4.535c-1.205-1.205-2.81-1.868-4.521-1.868c-1.449,0-2.821,0.48-3.945,1.356l-1.225-1.225
		c-0.873-0.873-2.036-1.354-3.274-1.354c-1.245,0-2.414,0.485-3.292,1.364c-0.665,0.665-1.084,1.482-1.263,2.34l-0.767-0.767
		c-0.968-0.968-2.257-1.501-3.63-1.501c-1.379,0-2.676,0.537-3.652,1.513l-1.936,1.936c-0.973,0.973-1.511,2.266-1.514,3.64
		c-0.003,1.376,0.531,2.67,1.503,3.641l5.607,5.608l-10.78,10.78l-6.375-6.375c-0.969-0.969-2.258-1.503-3.643-1.503
		c-1.374,0.004-2.667,0.541-3.64,1.515l-1.936,1.936c-2.01,2.01-2.016,5.277-0.011,7.282L3.7,67.608
		c-0.878,0.184-1.687,0.616-2.337,1.266C0.487,69.751,0.002,70.917,0,72.158s0.479,2.408,1.354,3.283l1.221,1.222
		c-0.875,1.119-1.356,2.486-1.36,3.93c-0.004,1.714,0.661,3.325,1.871,4.534c1.205,1.205,2.81,1.868,4.521,1.868
		c1.449,0,2.821-0.48,3.945-1.357l1.225,1.226c0.873,0.873,2.036,1.354,3.274,1.354c1.245,0,2.414-0.484,3.292-1.364
		c0.665-0.665,1.084-1.481,1.263-2.339l0.767,0.767c0.968,0.968,2.257,1.501,3.63,1.501c1.379,0,2.676-0.537,3.652-1.514
		l1.936-1.936c0.973-0.974,1.511-2.267,1.514-3.641c0.003-1.377-0.531-2.67-1.503-3.641L24.19,69.64l10.781-10.78l7.179,7.179
		c0.968,0.969,2.258,1.503,3.643,1.503c1.374-0.004,2.667-0.541,3.64-1.515L51.369,64.092z M46.597,38.661
		c1.146,0,2.22,0.443,3.025,1.249c0.81,0.81,1.254,1.887,1.251,3.034c-0.002,0.878-0.268,1.716-0.755,2.426l-5.956-5.956
		C44.874,38.926,45.714,38.661,46.597,38.661z M36.345,41.758c-0.983-0.983-0.979-2.587,0.01-3.575
		c0.955-0.956,2.625-0.961,3.576-0.009l11.422,11.421c0.475,0.475,0.735,1.108,0.734,1.784c-0.001,0.678-0.266,1.314-0.744,1.793
		c-0.479,0.479-1.116,0.744-1.797,0.745c-0.673,0-1.305-0.26-1.778-0.735c-0.015-0.015-0.036-0.021-0.051-0.035l-0.835-0.836
		c-0.008-0.007-0.015-0.015-0.023-0.022L36.38,41.81C36.366,41.794,36.361,41.773,36.345,41.758z M7.606,84.881
		c-1.146,0-2.22-0.443-3.025-1.249c-0.81-0.81-1.254-1.887-1.251-3.033c0.002-0.879,0.268-1.716,0.755-2.427l5.956,5.957
		C9.329,84.616,8.489,84.881,7.606,84.881z M17.858,81.784c0.983,0.982,0.979,2.587-0.01,3.574c-0.955,0.957-2.624,0.962-3.576,0.01
		L2.849,73.946c-0.475-0.475-0.736-1.108-0.734-1.784c0.001-0.678,0.266-1.313,0.744-1.793c0.479-0.479,1.116-0.743,1.797-0.745
		c0.673,0,1.305,0.261,1.778,0.735c0.015,0.016,0.036,0.021,0.051,0.035l0.835,0.835c0.045,0.046,0.094,0.086,0.146,0.121
		c0.035,0.05,0.074,0.099,0.119,0.143L17.823,81.73C17.837,81.747,17.842,81.768,17.858,81.784z M29.99,79.688
		c-0.001,0.811-0.319,1.573-0.895,2.149l-1.936,1.936c-0.576,0.575-1.342,0.894-2.157,0.894c-0.808,0-1.566-0.313-2.135-0.881
		L9.081,69.998c-0.045-0.046-0.094-0.087-0.146-0.123c-0.035-0.05-0.074-0.097-0.119-0.141l-4.498-4.498
		c-1.18-1.18-1.175-3.106,0.011-4.292l1.936-1.936c0.575-0.574,1.339-0.892,2.157-0.895c0.807,0,1.565,0.314,2.135,0.884
		l18.549,18.549C29.678,78.118,29.992,78.879,29.99,79.688z M22.695,68.145l-2.771-2.772l10.78-10.78l2.771,2.771L22.695,68.145z
		 M45.781,65.428c-0.808,0-1.566-0.314-2.135-0.884L25.097,45.994c-0.572-0.571-0.885-1.331-0.883-2.141
		c0.001-0.811,0.319-1.574,0.895-2.149l1.936-1.936c0.576-0.576,1.342-0.893,2.157-0.893c0.808,0,1.566,0.313,2.135,0.881
		L46.08,54.5c0.007,0.007,0.015,0.015,0.023,0.022l3.782,3.782c1.18,1.18,1.175,3.106-0.011,4.292l-1.935,1.936
		C47.362,65.107,46.599,65.425,45.781,65.428z"/>
</g>
</svg>
