<?xml version="1.0" encoding="utf-8"?>
<!-- Generator: Adobe Illustrator 16.0.1, SVG Export Plug-In . SVG Version: 6.00 Build 0)  -->
<!DOCTYPE svg PUBLIC "-//W3C//DTD SVG 1.1//EN" "http://www.w3.org/Graphics/SVG/1.1/DTD/svg11.dtd">
<svg version="1.1" id="Layer_1" xmlns="http://www.w3.org/2000/svg" xmlns:xlink="http://www.w3.org/1999/xlink" x="0px" y="0px"
	 width="198.932px" height="151.067px" viewBox="0 0 198.932 151.067" enable-background="new 0 0 198.932 151.067"
	 xml:space="preserve">
<g>
	<path fill="#FDCA00" d="M98.673,62.567c9.545,0,19.387-13.638,22.406-31.047c1.653-9.534-0.186-18.315-5.045-24.089
		C111.943,2.57,105.939,0,98.673,0C91.564,0,85.625,2.565,81.5,7.42c-4.955,5.827-6.812,14.383-5.229,24.086
		C79.004,48.343,89.263,62.567,98.673,62.567z M83.61,9.213c3.584-4.215,8.792-6.443,15.063-6.443
		c6.423,0,11.693,2.229,15.242,6.445c4.332,5.147,5.948,13.105,4.436,21.833c-2.75,15.853-11.577,28.749-19.677,28.749
		c-7.993,0-17.183-13.428-19.668-28.735C77.555,22.171,79.19,14.412,83.61,9.213z"/>
	<path fill="#FDCA00" d="M45.539,62.907c7.296,0,14.519-9.923,16.8-23.081c1.228-7.104-0.152-13.653-3.788-17.972
		c-3.073-3.65-7.573-5.58-13.013-5.58c-5.326,0-9.779,1.926-12.878,5.569c-3.706,4.357-5.1,10.738-3.924,17.967
		C30.768,52.33,38.463,62.907,45.539,62.907z M34.771,23.639c2.556-3.006,6.28-4.594,10.768-4.594c4.597,0,8.363,1.588,10.894,4.594
		c3.107,3.691,4.265,9.42,3.177,15.715c-1.987,11.46-8.299,20.783-14.07,20.783c-5.06,0-12.082-8.529-14.067-20.77
		C30.428,32.952,31.601,27.367,34.771,23.639z"/>
	<path fill="#FDCA00" d="M153.386,62.907c7.197,0,14.736-10.36,16.804-23.095c1.178-7.229-0.214-13.609-3.919-17.967
		c-3.1-3.645-7.555-5.571-12.885-5.571c-5.439,0-9.939,1.931-13.013,5.583c-3.634,4.32-5.013,10.869-3.78,17.969
		C138.874,52.984,146.093,62.907,153.386,62.907z M142.494,23.641c2.53-3.006,6.297-4.596,10.893-4.596
		c4.492,0,8.218,1.59,10.775,4.596c3.17,3.729,4.34,9.313,3.295,15.727c-1.989,12.24-9.012,20.77-14.07,20.77
		c-5.768,0-12.077-9.323-14.064-20.785C138.231,33.061,139.386,27.334,142.494,23.641z"/>
	<path fill="#FDCA00" d="M166.133,64.011c-0.757-0.124-1.467,0.389-1.59,1.145c-0.123,0.755,0.39,1.467,1.145,1.59
		c26.091,4.248,30.249,20.609,30.464,36.44h-41.216c-1.38-14.591-8.023-34.722-39.972-39.923c-0.525-0.082-1.049,0.135-1.354,0.568
		c-3.788,5.364-9,8.342-14.653,8.384c-3.531-0.025-6.88-1.188-9.819-3.355c-0.162-0.231-0.386-0.401-0.639-0.498
		c-1.537-1.235-2.953-2.748-4.21-4.529c-0.305-0.434-0.83-0.651-1.354-0.569c-31.954,5.202-38.596,25.332-39.978,39.923H2.779
		c0.215-15.831,4.373-32.192,30.461-36.44c0.754-0.123,1.267-0.835,1.144-1.59c-0.124-0.755-0.83-1.267-1.59-1.145
		C0,69.352,0,94.032,0,104.57c0,0.765,0.621,1.386,1.385,1.386h41.36c-0.154,2.723-0.154,5.177-0.154,7.206
		c0,0.765,0.621,1.385,1.385,1.385h31.04c-1.053,2.898-1.629,6.023-1.629,9.28c0,15.021,12.22,27.24,27.241,27.24
		c15.021,0,27.24-12.22,27.24-27.24c0-3.257-0.576-6.382-1.629-9.28h27.677c0.765,0,1.385-0.62,1.385-1.385
		c0-2.029,0-4.483-0.154-7.206h42.4c0.765,0,1.385-0.621,1.385-1.386C198.932,94.032,198.932,69.352,166.133,64.011z
		 M114.802,100.574L114.802,100.574l14.662-30.369c0.988,0.43,1.941,0.877,2.849,1.349l-14.864,30.871
		C116.604,101.759,115.723,101.138,114.802,100.574z M117.281,66.508c3.539,0.705,6.73,1.599,9.606,2.663l-14.522,30.078
		c-3.263-1.564-6.885-2.493-10.704-2.637L117.281,66.508z M112.911,68.918L98.508,96.677c-0.846,0.065-1.681,0.169-2.504,0.311
		l11.095-23.939C109.186,72.037,111.146,70.649,112.911,68.918z M103.417,74.401l-5.689,12.277l-6.442-13.403
		c2.429,1.097,5.02,1.69,7.671,1.71C100.468,74.974,101.961,74.772,103.417,74.401z M86.949,70.647l9.27,19.286l-3.313,7.148
		c-0.099,0.214-0.132,0.439-0.12,0.659c-1.391,0.42-2.735,0.942-4.023,1.568L73.748,68.235c2.68-0.836,5.597-1.544,8.795-2.098
		C83.859,67.88,85.342,69.391,86.949,70.647z M83.694,102.513L68.325,70.592c-0.047-0.097-0.105-0.185-0.171-0.265
		c0.946-0.418,1.928-0.816,2.952-1.193l15.193,31.44c0.013,0.026,0.032,0.044,0.047,0.069
		C85.423,101.214,84.539,101.839,83.694,102.513z M45.369,111.776c0.167-15.53,3.313-31.52,20.357-40.295
		c0.022,0.105,0.054,0.21,0.103,0.312l15.708,32.625c-2.163,2.129-3.971,4.613-5.332,7.358H45.369z M100.627,148.298
		c-13.493,0-24.471-10.978-24.471-24.471s10.978-24.471,24.471-24.471s24.47,10.978,24.47,24.471S114.121,148.298,100.627,148.298z
		 M125.049,111.776c-1.382-2.79-3.228-5.309-5.438-7.458l15.124-31.409c14.803,9.011,17.629,24.148,17.788,38.867H125.049z"/>
	<path fill="#FDCA00" d="M109.246,133.521h-7.233v-23.854c0-0.523-0.294-1.002-0.762-1.237c-0.464-0.234-1.027-0.188-1.447,0.124
		l-8.311,6.156c-0.615,0.455-0.744,1.323-0.289,1.938c0.455,0.614,1.322,0.743,1.937,0.288l6.102-4.52v21.104h-7.849
		c-0.765,0-1.385,0.621-1.385,1.386s0.62,1.385,1.385,1.385h17.853c0.765,0,1.385-0.62,1.385-1.385S110.01,133.521,109.246,133.521z
		"/>
</g>
</svg>
