<?xml version="1.0" encoding="UTF-8" standalone="no"?>
<svg
   xmlns:dc="http://purl.org/dc/elements/1.1/"
   xmlns:cc="http://creativecommons.org/ns#"
   xmlns:rdf="http://www.w3.org/1999/02/22-rdf-syntax-ns#"
   xmlns:svg="http://www.w3.org/2000/svg"
   xmlns="http://www.w3.org/2000/svg"
   viewBox="0 0 119.306 103.60813"
   height="103.60813"
   width="119.306"
   xml:space="preserve"
   id="svg2"
   version="1.1"><metadata
     id="metadata8"><rdf:RDF><cc:Work
         rdf:about=""><dc:format>image/svg+xml</dc:format><dc:type
           rdf:resource="http://purl.org/dc/dcmitype/StillImage" /></cc:Work></rdf:RDF></metadata><defs
     id="defs6"><clipPath
       id="clipPath18"
       clipPathUnits="userSpaceOnUse"><path
         id="path16"
         d="M 0,77.706 H 89.479 V 0 H 0 Z" /></clipPath></defs><g
     transform="matrix(1.3333333,0,0,-1.3333333,0,103.60813)"
     id="g10"><g
       id="g12"><g
         clip-path="url(#clipPath18)"
         id="g14"><g
           transform="translate(45.7617,39.8271)"
           id="g20"><path
             id="path22"
             style="fill:#fdd42f;fill-opacity:1;fill-rule:nonzero;stroke:none"
             d="M 0,0 C -0.136,0 -0.272,0.034 -0.398,0.107 -0.78,0.327 -0.91,0.816 -0.689,1.198 l 5.526,9.575 c 0.221,0.382 0.709,0.512 1.092,0.291 C 6.311,10.845 6.44,10.356 6.22,9.975 L 0.693,0.4 C 0.545,0.144 0.277,0 0,0" /></g><g
           transform="translate(55.8965,57.3799)"
           id="g24"><path
             id="path26"
             style="fill:#fdd42f;fill-opacity:1;fill-rule:nonzero;stroke:none"
             d="M 0,0 C -0.135,0 -0.272,0.036 -0.398,0.108 -0.78,0.329 -0.91,0.816 -0.691,1.198 l 10.812,18.73 c 0.221,0.382 0.71,0.511 1.092,0.291 0.382,-0.22 0.512,-0.709 0.292,-1.09 L 0.691,0.4 C 0.544,0.144 0.275,0 0,0" /></g><g
           transform="translate(73.2656,61.0938)"
           id="g28"><path
             id="path30"
             style="fill:#fdd42f;fill-opacity:1;fill-rule:nonzero;stroke:none"
             d="m 0,0 c -0.009,0 -0.019,0 -0.027,0.001 l -15.072,0.52 c -0.266,0.009 -0.513,0.153 -0.653,0.38 l -7.764,12.665 c -0.231,0.375 -0.114,0.868 0.263,1.097 0.375,0.232 0.868,0.114 1.097,-0.263 L -14.615,2.103 0.027,1.597 C 0.469,1.582 0.812,1.212 0.799,0.771 0.783,0.341 0.429,0 0,0" /></g><g
           transform="translate(51.2207,49.4434)"
           id="g32"><path
             id="path34"
             style="fill:#fdd42f;fill-opacity:1;fill-rule:nonzero;stroke:none"
             d="M 0,0 C -0.14,0 -0.279,0.037 -0.403,0.108 -0.602,0.223 -0.74,0.42 -0.785,0.645 L -3.23,13.182 c -0.085,0.432 0.197,0.851 0.63,0.936 0.429,0.085 0.852,-0.198 0.937,-0.632 L 0.609,1.842 11.97,5.622 c 0.419,0.142 0.869,-0.087 1.009,-0.505 0.139,-0.419 -0.088,-0.87 -0.505,-1.01 L 0.252,0.039 C 0.17,0.012 0.085,0 0,0" /></g><g
           transform="translate(54.7285,38.0537)"
           id="g36"><path
             id="path38"
             style="fill:#fdd42f;fill-opacity:1;fill-rule:nonzero;stroke:none"
             d="m 0,0 h -7.942 c -0.441,0 -0.798,0.359 -0.798,0.8 0,0.441 0.357,0.799 0.798,0.799 H 3.114 C 3.555,1.599 3.912,1.241 3.912,0.8 3.912,0.359 3.555,0 3.114,0 Z" /></g><g
           transform="translate(67.0557,38.0537)"
           id="g40"><path
             id="path42"
             style="fill:#fdd42f;fill-opacity:1;fill-rule:nonzero;stroke:none"
             d="m 0,0 c -0.44,0 -0.798,0.359 -0.798,0.8 0,0.441 0.358,0.799 0.798,0.799 h 21.626 c 0.44,0 0.798,-0.358 0.798,-0.799 0,-0.441 -0.358,-0.798 -0.798,-0.798 z" /></g><g
           transform="translate(78.9561,24.8691)"
           id="g44"><path
             id="path46"
             style="fill:#fdd42f;fill-opacity:1;fill-rule:nonzero;stroke:none"
             d="m 0,0 c -0.285,0 -0.562,0.155 -0.705,0.424 l -7.086,13.311 c -0.126,0.238 -0.124,0.522 0.003,0.756 l 7.085,13.057 c 0.211,0.388 0.697,0.533 1.084,0.322 0.387,-0.211 0.531,-0.695 0.321,-1.083 L -6.179,14.107 0.705,1.174 C 0.912,0.785 0.764,0.302 0.375,0.094 0.256,0.03 0.127,0 0,0" /></g><g
           transform="translate(67.4746,29.5859)"
           id="g48"><path
             id="path50"
             style="fill:#fdd42f;fill-opacity:1;fill-rule:nonzero;stroke:none"
             d="m 0,0 c -0.187,0 -0.376,0.065 -0.529,0.201 l -9.634,8.551 c -0.171,0.151 -0.27,0.371 -0.269,0.601 0.001,0.23 0.102,0.448 0.274,0.598 l 9.636,8.388 c 0.332,0.289 0.835,0.253 1.126,-0.078 0.29,-0.333 0.253,-0.838 -0.078,-1.127 L -8.423,9.343 0.531,1.396 C 0.861,1.104 0.892,0.599 0.599,0.269 0.439,0.09 0.221,0 0,0" /></g><g
           transform="translate(51.292,26.707)"
           id="g52"><path
             id="path54"
             style="fill:#fdd42f;fill-opacity:1;fill-rule:nonzero;stroke:none"
             d="M 0,0 C -0.275,0 -0.544,0.144 -0.692,0.398 L -6.22,9.974 c -0.22,0.381 -0.091,0.871 0.293,1.09 0.38,0.221 0.869,0.091 1.09,-0.293 L 0.691,1.198 C 0.911,0.816 0.78,0.327 0.398,0.107 0.273,0.034 0.135,0 0,0" /></g><g
           transform="translate(66.7109)"
           id="g56"><path
             id="path58"
             style="fill:#fdd42f;fill-opacity:1;fill-rule:nonzero;stroke:none"
             d="m 0,0 c -0.275,0 -0.544,0.144 -0.691,0.398 l -10.813,18.73 c -0.221,0.382 -0.091,0.869 0.291,1.09 0.383,0.22 0.871,0.091 1.092,-0.292 L 0.691,1.198 C 0.912,0.816 0.78,0.327 0.398,0.107 0.273,0.034 0.136,0 0,0" /></g><g
           transform="translate(50.4287,1.8301)"
           id="g60"><path
             id="path62"
             style="fill:#fdd42f;fill-opacity:1;fill-rule:nonzero;stroke:none"
             d="M 0,0 C -0.146,0 -0.29,0.038 -0.422,0.12 -0.797,0.354 -0.91,0.848 -0.677,1.221 l 7.986,12.793 c 0.142,0.226 0.388,0.368 0.656,0.375 l 14.85,0.391 c 0.442,0.02 0.808,-0.335 0.821,-0.776 0.01,-0.441 -0.337,-0.808 -0.779,-0.818 L 8.436,12.804 0.678,0.376 C 0.527,0.134 0.266,0 0,0" /></g><g
           transform="translate(48.7744,14.1299)"
           id="g64"><path
             id="path66"
             style="fill:#fdd42f;fill-opacity:1;fill-rule:nonzero;stroke:none"
             d="m 0,0 c -0.053,0 -0.108,0.005 -0.161,0.016 -0.433,0.089 -0.711,0.51 -0.622,0.944 l 2.587,12.615 c 0.047,0.227 0.187,0.421 0.387,0.534 0.201,0.115 0.439,0.138 0.655,0.062 L 14.927,10.022 C 15.344,9.878 15.566,9.425 15.422,9.008 15.28,8.591 14.825,8.368 14.407,8.512 L 3.187,12.366 0.782,0.638 C 0.704,0.26 0.371,0 0,0" /></g><g
           transform="translate(38.1875,26.707)"
           id="g68"><path
             id="path70"
             style="fill:#fdd42f;fill-opacity:1;fill-rule:nonzero;stroke:none"
             d="m 0,0 c -0.135,0 -0.273,0.034 -0.398,0.107 -0.382,0.22 -0.513,0.708 -0.293,1.09 l 5.528,9.574 c 0.221,0.383 0.71,0.514 1.09,0.292 C 6.31,10.843 6.44,10.355 6.22,9.974 L 0.692,0.398 C 0.544,0.143 0.275,0 0,0" /></g><g
           transform="translate(22.7686)"
           id="g72"><path
             id="path74"
             style="fill:#fdd42f;fill-opacity:1;fill-rule:nonzero;stroke:none"
             d="M 0,0 C -0.136,0 -0.272,0.034 -0.398,0.107 -0.78,0.327 -0.91,0.816 -0.69,1.198 l 10.811,18.728 c 0.221,0.383 0.71,0.512 1.092,0.292 0.382,-0.221 0.512,-0.709 0.291,-1.09 L 0.691,0.398 C 0.544,0.143 0.275,0 0,0" /></g><g
           transform="translate(39.0508,1.8301)"
           id="g76"><path
             id="path78"
             style="fill:#fdd42f;fill-opacity:1;fill-rule:nonzero;stroke:none"
             d="m 0,0 c -0.269,0 -0.531,0.135 -0.682,0.38 l -7.542,12.3 -14.64,0.506 c -0.442,0.014 -0.785,0.384 -0.772,0.825 0.015,0.441 0.401,0.781 0.826,0.769 l 15.072,-0.518 c 0.266,-0.01 0.511,-0.154 0.651,-0.381 L 0.679,1.216 C 0.91,0.841 0.793,0.349 0.416,0.117 0.286,0.038 0.143,0 0,0" /></g><g
           transform="translate(40.7051,14.1299)"
           id="g80"><path
             id="path82"
             style="fill:#fdd42f;fill-opacity:1;fill-rule:nonzero;stroke:none"
             d="M 0,0 C -0.375,0 -0.71,0.264 -0.783,0.646 L -3.057,12.29 -14.416,8.511 c -0.419,-0.14 -0.871,0.086 -1.009,0.504 -0.139,0.419 0.086,0.87 0.505,1.009 l 12.222,4.07 c 0.218,0.07 0.456,0.048 0.653,-0.07 0.2,-0.116 0.339,-0.31 0.382,-0.536 L 0.784,0.951 C 0.868,0.519 0.586,0.1 0.153,0.015 0.102,0.005 0.051,0 0,0" /></g><g
           transform="translate(42.6914,38.0537)"
           id="g84"><path
             id="path86"
             style="fill:#fdd42f;fill-opacity:1;fill-rule:nonzero;stroke:none"
             d="m 0,0 v 0 h -11.055 c -0.44,0 -0.798,0.357 -0.798,0.799 0,0.44 0.358,0.798 0.798,0.798 H 0 C 0.441,1.597 0.799,1.239 0.799,0.799 0.799,0.357 0.441,0 0,0" /></g><g
           transform="translate(0.7988,38.0537)"
           id="g88"><path
             id="path90"
             style="fill:#fdd42f;fill-opacity:1;fill-rule:nonzero;stroke:none"
             d="m 0,0 c -0.441,0 -0.799,0.357 -0.799,0.799 0,0.44 0.358,0.798 0.799,0.798 h 21.625 c 0.44,0 0.798,-0.358 0.798,-0.798 C 22.423,0.357 22.065,0 21.625,0 Z" /></g><g
           transform="translate(10.5225,24.8691)"
           id="g92"><path
             id="path94"
             style="fill:#fdd42f;fill-opacity:1;fill-rule:nonzero;stroke:none"
             d="m 0,0 c -0.129,0 -0.259,0.032 -0.381,0.098 -0.386,0.21 -0.531,0.694 -0.32,1.082 L 6.18,13.86 -0.704,26.794 c -0.207,0.389 -0.061,0.872 0.33,1.079 0.388,0.208 0.872,0.06 1.079,-0.329 L 7.792,14.232 C 7.916,13.995 7.916,13.712 7.787,13.476 L 0.702,0.418 C 0.559,0.151 0.283,0 0,0" /></g><g
           transform="translate(22.0029,29.5859)"
           id="g96"><path
             id="path98"
             style="fill:#fdd42f;fill-opacity:1;fill-rule:nonzero;stroke:none"
             d="M 0,0 C -0.223,0 -0.444,0.093 -0.603,0.273 -0.892,0.606 -0.856,1.111 -0.524,1.4 l 8.947,7.791 -8.952,7.948 c -0.33,0.292 -0.361,0.797 -0.068,1.127 0.293,0.329 0.797,0.36 1.127,0.067 l 9.634,-8.551 c 0.172,-0.151 0.27,-0.371 0.269,-0.6 C 10.431,8.951 10.331,8.733 10.158,8.583 L 0.524,0.195 C 0.373,0.064 0.187,0 0,0" /></g><g
           transform="translate(43.7158,39.8262)"
           id="g100"><path
             id="path102"
             style="fill:#fdd42f;fill-opacity:1;fill-rule:nonzero;stroke:none"
             d="M 0,0 C -0.274,0 -0.545,0.144 -0.691,0.399 L -6.22,9.975 c -0.219,0.382 -0.09,0.871 0.292,1.09 0.381,0.221 0.871,0.091 1.092,-0.291 L 0.69,1.198 C 0.911,0.815 0.781,0.328 0.398,0.108 0.272,0.035 0.136,0 0,0" /></g><g
           transform="translate(33.5811,57.3799)"
           id="g104"><path
             id="path106"
             style="fill:#fdd42f;fill-opacity:1;fill-rule:nonzero;stroke:none"
             d="m 0,0 c -0.275,0 -0.543,0.144 -0.691,0.4 l -10.813,18.728 c -0.221,0.381 -0.091,0.869 0.292,1.09 0.382,0.22 0.871,0.09 1.091,-0.292 L 0.691,1.198 C 0.912,0.816 0.781,0.327 0.398,0.107 0.272,0.034 0.136,0 0,0" /></g><g
           transform="translate(16.2119,61.0938)"
           id="g108"><path
             id="path110"
             style="fill:#fdd42f;fill-opacity:1;fill-rule:nonzero;stroke:none"
             d="m 0,0 c -0.43,0 -0.786,0.344 -0.797,0.776 -0.013,0.442 0.336,0.808 0.776,0.821 l 14.423,0.382 7.757,12.427 c 0.235,0.374 0.728,0.488 1.102,0.255 0.374,-0.234 0.487,-0.727 0.255,-1.101 L 15.53,0.769 C 15.388,0.542 15.142,0.401 14.874,0.394 L 0.022,0 Z" /></g><g
           transform="translate(38.1172,49.3623)"
           id="g112"><path
             id="path114"
             style="fill:#fdd42f;fill-opacity:1;fill-rule:nonzero;stroke:none"
             d="m 0,0 c -0.087,0 -0.176,0.014 -0.26,0.042 l -12.08,4.149 c -0.416,0.143 -0.639,0.598 -0.496,1.014 0.145,0.418 0.598,0.641 1.015,0.496 l 11.22,-3.852 2.407,11.727 c 0.089,0.432 0.51,0.709 0.943,0.62 0.432,-0.088 0.71,-0.509 0.622,-0.942 L 0.783,0.638 C 0.736,0.412 0.596,0.218 0.396,0.104 0.274,0.035 0.138,0 0,0" /></g></g></g></g></svg>