<?xml version="1.0" encoding="utf-8"?>
<!-- Generator: Adobe Illustrator 16.0.1, SVG Export Plug-In . SVG Version: 6.00 Build 0)  -->
<!DOCTYPE svg PUBLIC "-//W3C//DTD SVG 1.1//EN" "http://www.w3.org/Graphics/SVG/1.1/DTD/svg11.dtd">
<svg version="1.1" id="Layer_1" xmlns="http://www.w3.org/2000/svg" xmlns:xlink="http://www.w3.org/1999/xlink" x="0px" y="0px"
	 width="126.382px" height="115.57px" viewBox="0 0 126.382 115.57" enable-background="new 0 0 126.382 115.57"
	 xml:space="preserve">
<path fill="#FFFFFF" d="M119.612,99.746c0.538-0.251,1.139-0.628,1.755-1.2c2.989-2.774,4.562-8.334,4.673-16.522
	c0.18-13.369-6.513-18.687-6.798-18.906c-0.254-0.196-0.583-0.268-0.897-0.196c-0.312,0.07-0.579,0.278-0.725,0.564
	c-0.189,0.374-4.825,9.17-20.076,8.867c-5.787-0.107-11.381-1.79-16.629-4.999c-5.397-3.297-8.462-7.072-8.493-7.111
	c-0.183-0.227-0.451-0.372-0.743-0.397c-0.291-0.025-0.582,0.064-0.802,0.256c-0.17,0.145-17.086,14.619-32.828,20.282
	c-6.09,2.189-11.853,4.267-16.458,6.488c-0.064,0.023-0.126,0.054-0.185,0.089c-7.148,3.479-11.437,7.324-9.65,12.539
	c1.377,4.021,3.893,6.354,5.134,7.312l-2.244,6.603h-2.311c-5.613,0-10.179-4.566-10.179-10.18V76.166h16.51
	c0.595,0,1.079-0.483,1.079-1.078c0-0.596-0.483-1.079-1.079-1.079H2.157V63.831h16.51c0.595,0,1.079-0.482,1.079-1.078
	s-0.483-1.079-1.079-1.079H2.157v-9.149h16.51c0.595,0,1.079-0.483,1.079-1.078c0-0.596-0.483-1.079-1.079-1.079H2.157v-3.423
	c0-5.614,4.566-10.182,10.179-10.182h30.022c5.613,0,10.179,4.567,10.179,10.182v13.973c0,0.596,0.483,1.079,1.079,1.079
	c0.595,0,1.079-0.483,1.079-1.079V46.944c0-1.069-0.151-2.1-0.407-3.089c1.629-0.126,4.241-0.663,6.501-2.647
	c2.654-2.332,4.062-5.968,4.185-10.807c0.094-3.757-1.061-6.896-3.435-9.331c-4.168-4.274-10.869-5.107-13.416-5.27
	c-0.52-4.641-4.464-8.263-9.241-8.263H28.425v-6.46C28.425,0.483,27.942,0,27.347,0s-1.079,0.483-1.079,1.078v6.46H15.813
	c-5.13,0-9.302,4.173-9.302,9.302c0,4.685,3.484,8.562,7.996,9.199v8.567h-2.169C5.534,34.606,0,40.141,0,46.944v56.289
	c0,6.803,5.534,12.336,12.336,12.336h30.022c0.031,0,0.06-0.006,0.09-0.009h14.876c0.052,0,0.105-0.004,0.157-0.012l13.57-2.004
	l25.56,2.013c0.028,0.002,0.055,0.003,0.083,0.003c0,0,3.307,0.01,10.609,0.01c3.649,0,8.298-0.003,14.028-0.01
	c2.505-0.003,4.108-0.778,4.762-2.305C127.676,109.577,122.335,102.838,119.612,99.746z M62.817,30.347
	c-0.107,4.199-1.261,7.302-3.432,9.222c-2.121,1.878-4.718,2.144-5.862,2.162c-1.97-4.202-6.228-7.124-11.165-7.124h-2.397v-8.532
	c4.251-0.494,7.633-3.863,8.148-8.109c2.357,0.171,8.323,0.959,11.887,4.612C61.948,24.578,62.896,27.193,62.817,30.347z
	 M8.667,16.84c0-3.939,3.205-7.145,7.146-7.145h23.07c3.939,0,7.146,3.205,7.146,7.145c0,3.94-3.206,7.146-7.146,7.146h-23.07
	C11.872,23.985,8.667,20.78,8.667,16.84z M16.663,26.143h21.141v8.464H16.663V26.143z M119.996,96.875
	c-1.223,1.186-2.262,1.189-2.338,1.197c-0.023-0.001-0.047,0.003-0.071,0.004c-0.019,0.001-0.036-0.003-0.054-0.002l-12.312,0.896
	c0.034-6.224,1.827-11.094,5.334-14.473c4.568-4.396,10.876-5.11,13.251-5.218c0.057,0.865,0.091,1.762,0.078,2.714
	C123.758,91.297,121.7,95.222,119.996,96.875z M38.782,82.411c14.311-5.147,29.058-16.97,32.684-19.985
	c1.254,1.368,4.093,4.184,8.326,6.769c5.579,3.411,11.539,5.2,17.713,5.315c13.369,0.252,19.329-6.089,21.282-8.834
	c1.364,1.52,3.949,5.141,4.812,11.451c-2.754,0.127-9.465,0.945-14.523,5.804c-3.987,3.829-6.01,9.278-6.014,16.198l-19.023,1.387
	L72.379,77.607c2.372-1.89,3.952-3.261,4.186-3.465c0.448-0.392,0.494-1.072,0.103-1.521c-0.392-0.449-1.073-0.495-1.521-0.104
	c-1.192,1.04-2.822,2.396-4.718,3.887c-0.055,0.035-0.106,0.074-0.151,0.118c-7.721,6.052-19.773,14.257-25.304,12.951
	c-6.177-1.466-8.162-4.625-8.771-6.13C37.044,83.039,37.901,82.729,38.782,82.411z M44.067,103.427
	c-0.152-0.688-0.849-3.808-1.66-6.778c-0.858-3.15-5.301-2.785-10.002-2.397c-1.941,0.159-3.948,0.325-5.628,0.231
	c-1.054-0.059-1.86-0.43-2.466-1.135c-1.189-1.388-1.312-3.674-1.296-4.756c3.086-1.438,6.845-2.912,11.167-4.507
	c0.792,1.988,3.201,5.805,10.292,7.488c0.528,0.125,1.093,0.185,1.692,0.185c4.189,0,9.975-2.896,15.379-6.34l8.214,16.137
	L44.067,103.427z M72.061,101.387c-0.02-0.079-0.046-0.159-0.085-0.235L63.37,84.247c-0.002-0.006-0.006-0.009-0.01-0.015
	c2.671-1.785,5.182-3.639,7.289-5.268l11.054,21.721L72.061,101.387z M13.798,98.801c-1.183-3.454,1.502-6.277,7.088-9.169
	c0.098,1.5,0.484,3.596,1.781,5.112c0.994,1.163,2.336,1.8,3.989,1.893c1.83,0.103,3.911-0.07,5.924-0.236
	c3.278-0.27,7.357-0.604,7.745,0.815c0.71,2.606,1.333,5.329,1.567,6.369l-23.43,1.706C17.653,104.715,15.123,102.669,13.798,98.801
	z M124.113,112.404c-0.354,0.823-1.709,0.998-2.784,0.999c-16.457,0.019-23.978,0.002-24.589,0l-25.642-2.019
	c-0.083-0.006-0.163-0.004-0.242,0.008l-13.613,2.011H16.929l2.033-5.984l98.213-7.156
	C120.733,104.116,125.063,110.195,124.113,112.404z"/>
</svg>
