<?xml version="1.0" encoding="utf-8"?>
<!-- Generator: Adobe Illustrator 16.0.1, SVG Export Plug-In . SVG Version: 6.00 Build 0)  -->
<!DOCTYPE svg PUBLIC "-//W3C//DTD SVG 1.1//EN" "http://www.w3.org/Graphics/SVG/1.1/DTD/svg11.dtd">
<svg version="1.1" id="Layer_1" xmlns="http://www.w3.org/2000/svg" xmlns:xlink="http://www.w3.org/1999/xlink" x="0px" y="0px"
	 width="137.665px" height="100.833px" viewBox="0 0 137.665 100.833" enable-background="new 0 0 137.665 100.833"
	 xml:space="preserve">
<g>
	<path fill="#FFFFFF" d="M109.031,55.254c-0.646-0.381-1.479-0.169-1.861,0.478C94.281,77.506,70.055,94.734,65.524,97.839
		c-4.636-3.124-29.785-20.741-42.441-43.252c-0.368-0.653-1.196-0.887-1.85-0.519s-0.886,1.196-0.519,1.851
		c14.242,25.329,43.786,44.507,44.082,44.698c0.224,0.145,0.479,0.216,0.735,0.216c0.259,0,0.518-0.074,0.744-0.222
		c0.286-0.187,28.721-18.98,43.232-43.496C109.89,56.47,109.676,55.636,109.031,55.254z"/>
	<path fill="#FFFFFF" d="M17.283,45.328c0.711-0.237,1.095-1.008,0.857-1.719c-1.62-4.844-2.441-9.627-2.441-14.218
		c0-14.709,11.966-26.675,26.674-26.675c8.815,0,17.053,4.353,22.037,11.645c0.506,0.741,1.737,0.741,2.243,0
		C71.636,7.069,79.874,2.717,88.689,2.717c14.708,0,26.674,11.966,26.674,26.675c0,5.036-1.023,10.322-3.04,15.712
		c-0.263,0.703,0.093,1.485,0.796,1.749c0.157,0.059,0.318,0.086,0.476,0.086c0.55,0,1.068-0.337,1.272-0.883
		c2.131-5.695,3.212-11.302,3.212-16.664C118.081,13.185,104.896,0,88.689,0C79.61,0,71.088,4.188,65.531,11.295
		C59.974,4.188,51.452,0,42.373,0C26.167,0,12.982,13.185,12.982,29.392c0,4.885,0.868,9.958,2.582,15.079
		C15.802,45.183,16.57,45.566,17.283,45.328z"/>
	<path fill="#FFFFFF" d="M136.306,49.511H88.208l-8.219-15.14c-0.254-0.468-0.757-0.749-1.29-0.707
		c-0.531,0.037-0.991,0.382-1.178,0.881L65.912,65.701L52.956,13.688c-0.149-0.601-0.686-1.024-1.305-1.03c-0.004,0-0.009,0-0.013,0
		c-0.614,0-1.152,0.412-1.313,1.006l-9.276,34.488H1.358C0.608,48.152,0,48.761,0,49.511s0.608,1.358,1.358,1.358H42.09
		c0.614,0,1.152-0.412,1.312-1.006l8.185-30.429l12.749,51.179c0.144,0.579,0.647,0.995,1.242,1.029
		c0.025,0,0.051,0.002,0.077,0.002c0.564,0,1.074-0.351,1.273-0.885l12.098-32.468l7.18,13.226c0.238,0.438,0.696,0.71,1.194,0.71
		h48.907c0.75,0,1.358-0.608,1.358-1.358S137.057,49.511,136.306,49.511z"/>
</g>
</svg>
