<?xml version="1.0" encoding="utf-8"?>
<!-- Generator: Adobe Illustrator 16.0.1, SVG Export Plug-In . SVG Version: 6.00 Build 0)  -->
<!DOCTYPE svg PUBLIC "-//W3C//DTD SVG 1.1//EN" "http://www.w3.org/Graphics/SVG/1.1/DTD/svg11.dtd">
<svg version="1.1" id="Layer_1" xmlns="http://www.w3.org/2000/svg" xmlns:xlink="http://www.w3.org/1999/xlink" x="0px" y="0px"
	 width="17px" height="16.987px" viewBox="0 0 17 16.987" enable-background="new 0 0 17 16.987" xml:space="preserve">
<path fill="#FFFFFF" d="M13.714,0H3.285C1.474,0,0,1.473,0,3.282v3.467v6.955c0,1.811,1.474,3.283,3.285,3.283h10.429
	c1.811,0,3.286-1.473,3.286-3.283V6.749V3.282C17,1.473,15.525,0,13.714,0z M14.657,1.958l0.375-0.002V2.33v2.505L12.16,4.847
	l-0.01-2.882L14.657,1.958z M6.074,6.749C6.617,5.997,7.501,5.503,8.5,5.503s1.882,0.494,2.425,1.246
	c0.355,0.492,0.568,1.092,0.568,1.744c0,1.649-1.343,2.99-2.993,2.99c-1.65,0-2.993-1.341-2.993-2.99
	C5.507,7.841,5.72,7.241,6.074,6.749z M15.344,13.704c0,0.898-0.73,1.628-1.629,1.628H3.285c-0.899,0-1.629-0.729-1.629-1.628V6.749
	h2.538c-0.219,0.54-0.343,1.128-0.343,1.744c0,2.563,2.085,4.646,4.648,4.646s4.648-2.083,4.648-4.646
	c0-0.616-0.125-1.204-0.342-1.744h2.538V13.704z"/>
</svg>
