<?xml version="1.0" encoding="utf-8"?>
<!-- Generator: Adobe Illustrator 16.0.1, SVG Export Plug-In . SVG Version: 6.00 Build 0)  -->
<!DOCTYPE svg PUBLIC "-//W3C//DTD SVG 1.1//EN" "http://www.w3.org/Graphics/SVG/1.1/DTD/svg11.dtd">
<svg version="1.1" id="Line_20" xmlns="http://www.w3.org/2000/svg" xmlns:xlink="http://www.w3.org/1999/xlink" x="0px" y="0px"
	 width="32px" height="32px" viewBox="0 0 32 32" enable-background="new 0 0 32 32" xml:space="preserve">
<g id="_x33__1_">
	<g>
		<path fill="#00BF00" d="M1,12h10c0.552,0,1-0.447,1-1c0-0.552-0.448-1-1-1H3.359C5.606,5.272,10.417,2,16,2
			c7.051,0,12.868,5.218,13.841,12h2.021C30.875,6.109,24.158,0,16,0C9.972,0,4.728,3.336,2,8.26V1c0-0.552-0.448-1-1-1S0,0.448,0,1
			v10C0,11.969,1,12,1,12z M31,20H21c-0.552,0-1,0.448-1,1c0,0.553,0.448,1,1,1h7.635c-2.249,4.726-7.053,8-12.635,8
			C8.949,30,3.132,24.782,2.159,18H0.138C1.125,25.891,7.842,32,16,32c6.028,0,11.272-3.336,14-8.26V31c0,0.553,0.448,1,1,1
			s1-0.447,1-1V21C32,19.938,31,20,31,20z"/>
	</g>
</g>
</svg>
