<?xml version="1.0" encoding="UTF-8" standalone="no"?>
<svg
   xmlns:dc="http://purl.org/dc/elements/1.1/"
   xmlns:cc="http://creativecommons.org/ns#"
   xmlns:rdf="http://www.w3.org/1999/02/22-rdf-syntax-ns#"
   xmlns:svg="http://www.w3.org/2000/svg"
   xmlns="http://www.w3.org/2000/svg"
   viewBox="0 0 88.255203 97.911469"
   height="97.911469"
   width="88.255203"
   xml:space="preserve"
   id="svg2"
   version="1.1"><metadata
     id="metadata8"><rdf:RDF><cc:Work
         rdf:about=""><dc:format>image/svg+xml</dc:format><dc:type
           rdf:resource="http://purl.org/dc/dcmitype/StillImage" /></cc:Work></rdf:RDF></metadata><defs
     id="defs6"><clipPath
       id="clipPath18"
       clipPathUnits="userSpaceOnUse"><path
         id="path16"
         d="M 0,73.434 H 66.191 V 0 H 0 Z" /></clipPath></defs><g
     transform="matrix(1.3333333,0,0,-1.3333333,0,97.911467)"
     id="g10"><g
       id="g12"><g
         clip-path="url(#clipPath18)"
         id="g14"><g
           transform="translate(59.2197,1.4639)"
           id="g20"><path
             id="path22"
             style="fill:#00bf00;fill-opacity:1;fill-rule:nonzero;stroke:none"
             d="m 0,0 h -52.248 c -3.038,0 -5.508,2.47 -5.508,5.506 V 47.421 H 5.509 V 5.506 C 5.509,2.47 3.038,0 0,0 m -52.248,64.044 h 10.936 v -5.767 c 0,-0.707 0.574,-1.28 1.28,-1.28 0.707,0 1.281,0.573 1.281,1.28 v 5.767 h 24.735 v -5.767 c 0,-0.707 0.573,-1.28 1.282,-1.28 0.704,0 1.279,0.573 1.279,1.28 v 5.767 H 0 c 3.038,0 5.509,-2.471 5.509,-5.508 v -9.652 h -63.265 v 9.652 c 0,3.037 2.47,5.508 5.508,5.508 M 0,65.507 h -11.455 v 5.182 c 0,0.707 -0.575,1.281 -1.279,1.281 -0.709,0 -1.282,-0.574 -1.282,-1.281 v -5.182 h -24.735 v 5.182 c 0,0.707 -0.574,1.281 -1.281,1.281 -0.706,0 -1.28,-0.574 -1.28,-1.281 v -5.182 h -10.936 c -3.845,0 -6.972,-3.127 -6.972,-6.971 V 5.506 c 0,-3.843 3.127,-6.97 6.972,-6.97 H 0 c 3.845,0 6.972,3.127 6.972,6.97 v 53.03 c 0,3.844 -3.127,6.971 -6.972,6.971" /></g><g
           transform="translate(14.0811,36.1025)"
           id="g24"><path
             id="path26"
             style="fill:#00bf00;fill-opacity:1;fill-rule:nonzero;stroke:none"
             d="m 0,0 c 0,-0.168 -0.138,-0.306 -0.305,-0.306 h -6.521 c -0.169,0 -0.305,0.138 -0.305,0.306 v 5.973 c 0,0.169 0.136,0.305 0.305,0.305 h 6.521 C -0.138,6.278 0,6.142 0,5.973 Z m -0.305,7.74 h -6.521 c -0.975,0 -1.768,-0.793 -1.768,-1.767 V 0 c 0,-0.976 0.793,-1.769 1.768,-1.769 h 6.521 c 0.975,0 1.769,0.793 1.769,1.769 v 5.973 c 0,0.974 -0.794,1.767 -1.769,1.767" /></g><g
           transform="translate(28.8945,36.1025)"
           id="g28"><path
             id="path30"
             style="fill:#00bf00;fill-opacity:1;fill-rule:nonzero;stroke:none"
             d="m 0,0 c 0,-0.168 -0.138,-0.306 -0.306,-0.306 h -6.52 c -0.169,0 -0.307,0.138 -0.307,0.306 v 5.973 c 0,0.169 0.138,0.305 0.307,0.305 h 6.52 C -0.138,6.278 0,6.142 0,5.973 Z m -0.306,7.74 h -6.52 c -0.977,0 -1.77,-0.793 -1.77,-1.767 V 0 c 0,-0.976 0.793,-1.769 1.77,-1.769 h 6.52 c 0.976,0 1.769,0.793 1.769,1.769 v 5.973 c 0,0.974 -0.793,1.767 -1.769,1.767" /></g><g
           transform="translate(58.5205,36.1025)"
           id="g32"><path
             id="path34"
             style="fill:#00bf00;fill-opacity:1;fill-rule:nonzero;stroke:none"
             d="m 0,0 c 0,-0.168 -0.138,-0.306 -0.305,-0.306 h -6.521 c -0.169,0 -0.306,0.138 -0.306,0.306 v 5.973 c 0,0.169 0.137,0.305 0.306,0.305 h 6.521 C -0.138,6.278 0,6.142 0,5.973 Z m -0.305,7.74 h -6.521 c -0.976,0 -1.769,-0.793 -1.769,-1.767 V 0 c 0,-0.976 0.793,-1.769 1.769,-1.769 h 6.521 c 0.976,0 1.768,0.793 1.768,1.769 v 5.973 c 0,0.974 -0.792,1.767 -1.768,1.767" /></g><g
           transform="translate(14.0811,23.3008)"
           id="g36"><path
             id="path38"
             style="fill:#00bf00;fill-opacity:1;fill-rule:nonzero;stroke:none"
             d="m 0,0 c 0,-0.168 -0.138,-0.305 -0.305,-0.305 h -6.521 c -0.169,0 -0.305,0.137 -0.305,0.305 v 5.974 c 0,0.167 0.136,0.304 0.305,0.304 h 6.521 C -0.138,6.278 0,6.141 0,5.974 Z m -0.305,7.741 h -6.521 c -0.975,0 -1.768,-0.793 -1.768,-1.767 V 0 c 0,-0.975 0.793,-1.768 1.768,-1.768 h 6.521 c 0.975,0 1.769,0.793 1.769,1.768 v 5.974 c 0,0.974 -0.794,1.767 -1.769,1.767" /></g><g
           transform="translate(28.8945,23.3008)"
           id="g40"><path
             id="path42"
             style="fill:#00bf00;fill-opacity:1;fill-rule:nonzero;stroke:none"
             d="m 0,0 c 0,-0.168 -0.138,-0.305 -0.306,-0.305 h -6.52 c -0.169,0 -0.307,0.137 -0.307,0.305 v 5.974 c 0,0.167 0.138,0.304 0.307,0.304 h 6.52 C -0.138,6.278 0,6.141 0,5.974 Z m -0.306,7.741 h -6.52 c -0.977,0 -1.77,-0.793 -1.77,-1.767 V 0 c 0,-0.975 0.793,-1.768 1.77,-1.768 h 6.52 c 0.976,0 1.769,0.793 1.769,1.768 v 5.974 c 0,0.974 -0.793,1.767 -1.769,1.767" /></g><g
           transform="translate(43.707,23.3008)"
           id="g44"><path
             id="path46"
             style="fill:#00bf00;fill-opacity:1;fill-rule:nonzero;stroke:none"
             d="m 0,0 c 0,-0.168 -0.137,-0.305 -0.304,-0.305 h -6.523 c -0.167,0 -0.305,0.137 -0.305,0.305 v 5.974 c 0,0.167 0.138,0.304 0.305,0.304 h 6.523 C -0.137,6.278 0,6.141 0,5.974 Z m -0.304,7.741 h -6.523 c -0.974,0 -1.768,-0.793 -1.768,-1.767 V 0 c 0,-0.975 0.794,-1.768 1.768,-1.768 h 6.523 c 0.974,0 1.767,0.793 1.767,1.768 v 5.974 c 0,0.974 -0.793,1.767 -1.767,1.767" /></g><g
           transform="translate(58.5205,23.3008)"
           id="g48"><path
             id="path50"
             style="fill:#00bf00;fill-opacity:1;fill-rule:nonzero;stroke:none"
             d="m 0,0 c 0,-0.168 -0.138,-0.305 -0.305,-0.305 h -6.521 c -0.169,0 -0.306,0.137 -0.306,0.305 v 5.974 c 0,0.167 0.137,0.304 0.306,0.304 h 6.521 C -0.138,6.278 0,6.141 0,5.974 Z m -0.305,7.741 h -6.521 c -0.976,0 -1.769,-0.793 -1.769,-1.767 V 0 c 0,-0.975 0.793,-1.768 1.769,-1.768 h 6.521 c 0.976,0 1.768,0.793 1.768,1.768 v 5.974 c 0,0.974 -0.792,1.767 -1.768,1.767" /></g><g
           transform="translate(14.0811,10.5)"
           id="g52"><path
             id="path54"
             style="fill:#00bf00;fill-opacity:1;fill-rule:nonzero;stroke:none"
             d="m 0,0 c 0,-0.168 -0.138,-0.305 -0.305,-0.305 h -6.521 c -0.169,0 -0.305,0.137 -0.305,0.305 v 5.973 c 0,0.168 0.136,0.305 0.305,0.305 h 6.521 C -0.138,6.278 0,6.141 0,5.973 Z m -0.305,7.741 h -6.521 c -0.975,0 -1.768,-0.793 -1.768,-1.768 V 0 c 0,-0.975 0.793,-1.769 1.768,-1.769 h 6.521 c 0.975,0 1.769,0.794 1.769,1.769 v 5.973 c 0,0.975 -0.794,1.768 -1.769,1.768" /></g><g
           transform="translate(28.8945,10.5)"
           id="g56"><path
             id="path58"
             style="fill:#00bf00;fill-opacity:1;fill-rule:nonzero;stroke:none"
             d="m 0,0 c 0,-0.168 -0.138,-0.305 -0.306,-0.305 h -6.52 c -0.169,0 -0.307,0.137 -0.307,0.305 v 5.973 c 0,0.168 0.138,0.305 0.307,0.305 h 6.52 C -0.138,6.278 0,6.141 0,5.973 Z m -0.306,7.741 h -6.52 c -0.977,0 -1.77,-0.793 -1.77,-1.768 V 0 c 0,-0.975 0.793,-1.769 1.77,-1.769 h 6.52 c 0.976,0 1.769,0.794 1.769,1.769 v 5.973 c 0,0.975 -0.793,1.768 -1.769,1.768" /></g><g
           transform="translate(43.707,10.5)"
           id="g60"><path
             id="path62"
             style="fill:#00bf00;fill-opacity:1;fill-rule:nonzero;stroke:none"
             d="m 0,0 c 0,-0.168 -0.137,-0.305 -0.304,-0.305 h -6.523 c -0.167,0 -0.305,0.137 -0.305,0.305 v 5.973 c 0,0.168 0.138,0.305 0.305,0.305 h 6.523 C -0.137,6.278 0,6.141 0,5.973 Z m -0.304,7.741 h -6.523 c -0.974,0 -1.768,-0.793 -1.768,-1.768 V 0 c 0,-0.975 0.794,-1.769 1.768,-1.769 h 6.523 c 0.974,0 1.767,0.794 1.767,1.769 v 5.973 c 0,0.975 -0.793,1.768 -1.767,1.768" /></g><g
           transform="translate(58.5205,10.5)"
           id="g64"><path
             id="path66"
             style="fill:#00bf00;fill-opacity:1;fill-rule:nonzero;stroke:none"
             d="m 0,0 c 0,-0.168 -0.138,-0.305 -0.305,-0.305 h -6.521 c -0.169,0 -0.306,0.137 -0.306,0.305 v 5.973 c 0,0.168 0.137,0.305 0.306,0.305 h 6.521 C -0.138,6.278 0,6.141 0,5.973 Z m -0.305,7.741 h -6.521 c -0.976,0 -1.769,-0.793 -1.769,-1.768 V 0 c 0,-0.975 0.793,-1.769 1.769,-1.769 h 6.521 c 0.976,0 1.768,0.794 1.768,1.769 v 5.973 c 0,0.975 -0.792,1.768 -1.768,1.768" /></g><g
           transform="translate(43.707,36.1025)"
           id="g68"><path
             id="path70"
             style="fill:#00bf00;fill-opacity:1;fill-rule:nonzero;stroke:none"
             d="m 0,0 c 0,-0.168 -0.137,-0.306 -0.304,-0.306 h -6.523 c -0.167,0 -0.305,0.138 -0.305,0.306 v 4.335 l 3.173,-2.811 c 0.135,-0.119 0.307,-0.184 0.485,-0.184 0.02,0 0.042,10e-4 0.063,0.004 0.199,0.016 0.384,0.115 0.508,0.271 L 0,5.245 Z m -6.827,6.278 h 5.781 L -3.564,3.13 -7.029,6.197 c 0.054,0.049 0.125,0.081 0.202,0.081 M 4.298,11.787 C 3.982,12.04 3.522,11.989 3.271,11.673 L 0.087,7.694 C -0.04,7.723 -0.17,7.74 -0.304,7.74 H -6.827 C -7.34,7.74 -7.798,7.517 -8.122,7.167 L -9.39,8.289 c -0.302,0.267 -0.764,0.24 -1.032,-0.062 -0.268,-0.303 -0.24,-0.765 0.062,-1.034 L -8.595,5.63 V 0 c 0,-0.976 0.794,-1.769 1.768,-1.769 h 6.523 c 0.974,0 1.767,0.793 1.767,1.769 v 5.973 c 0,0.301 -0.082,0.582 -0.216,0.831 l 3.165,3.955 c 0.253,0.316 0.202,0.776 -0.114,1.028" /></g></g></g></g></svg>