<?xml version="1.0" encoding="utf-8"?>
<!-- Generator: Adobe Illustrator 16.0.1, SVG Export Plug-In . SVG Version: 6.00 Build 0)  -->
<!DOCTYPE svg PUBLIC "-//W3C//DTD SVG 1.1//EN" "http://www.w3.org/Graphics/SVG/1.1/DTD/svg11.dtd">
<svg version="1.1" id="Слой_1" xmlns="http://www.w3.org/2000/svg" xmlns:xlink="http://www.w3.org/1999/xlink" x="0px" y="0px"
	 width="100%" height="auto" viewBox="0 0 1039 446" enable-background="new 0 0 1039 446" xml:space="preserve">
<image display="none" overflow="visible" width="1039" height="446" xlink:href="chema.png"  transform="matrix(1 0 0 1 -12 7.7471)">
</image>
<path fill="#fff" d="M634.25,268.5"/>
<path opacity="0.7" fill="#fff" d="M593,312.25l1.25-26l40-17.75l24.5,43.75C658.75,312.25,642,334.5,593,312.25z"/>
<path opacity="0.7" fill="#fff" d="M670.75,276.5l3-27.25l-39.5,19.25l24.5,43.75C658.75,312.25,669.957,302.675,670.75,276.5z"
	/>
<path opacity="0.4" fill="#fff" enable-background="new    " d="M593,312.25c0,0-6.301-6.301-7.629-22.033
	c-0.543-6.427-0.256-14.428,1.629-24.217c6.5-33.75,41-41.25,64.75-31s22,14.25,22,14.25l-79.5,37L593,312.25z"/>
<polygon opacity="0.6" fill="#fff" enable-background="new    " points="627.5,136 679.25,114.5 647.5,79.25 655.75,69.25 
	642.75,63.5 602.75,106.25 "/>
<path opacity="0.7" fill="#fff" d="M673.75,249.25c0,0-58-46.25-87,13.75c0,0-3.079,17.335-1.379,27.217
	c0,0,1.629,21.811,36.379,31.922c0,0,40.25,6.361,47.75-25.889l4.279-46l16.057-16.329c0,0,13.914,16.829,15.664,30.579l-4.75,27
	l-0.5,12.25L613.5,345l-33.395-44.034c0,0-13.355-16.26-14.441-29.468c0,0-8.182-30.706,28.452-50.852l31.759-14.313l3.578-28.833
	l34.214,41.5c0,0,17.47,8.078,25.151,13.914S673.75,249.25,673.75,249.25z"/>
<path opacity="0.5" fill="#fff" enable-background="new    " d="M615.334,161.667"/>
<path fill="#fff" d="M663.667,219"/>
<polygon opacity="0.6" fill="#fff" enable-background="new    " points="642.25,191.583 634,181.667 656.5,171 665.333,180.833 
	"/>
<polygon opacity="0.7" fill="#fff" enable-background="new    " points="600.566,218.39 625.875,206.333 629.453,177.5 
	616.5,161.667 692,129 679.25,114.5 627.5,136 602.75,108 590,102.25 546.5,151.25 "/>
<path opacity="0.7" fill="#fff" enable-background="new    " d="M564.068,250.25l-49.818-64.5l31-34.25l54.462,65.829
	C599.712,217.329,573.887,231,564.068,250.25z"/>
<polygon opacity="0.7" fill="#fff" enable-background="new    " points="532.333,267.668 565.664,252.568 514.25,186.336 
	488.167,216.003 519.5,257.337 522.834,255.17 "/>
<path opacity="0.7" fill="#fff" enable-background="new    " d="M486.5,367c0,0,31.75-20.5,10.25-48.5s-17.75-25-17.75-25
	l50.5-23.75l9.75,12.5l-9.5,4.25c0,0-3.25,3.25-0.5,6.75s17.5,25.125,17.5,25.125l33.722-16.952L613.5,345l-106.25,51.75L486.5,367z
	"/>
<path opacity="0.5" fill="#fff" enable-background="new    " d="M565.222,254.182c0,0-3.068,13.297,1.729,24.995
	s13.154,21.789,13.154,21.789l-32.73,16.284l-19.001-25.584c0,0-1.249-4.484,4.251-5.95s7.125-3.466,7.125-3.466l-9.375-12.5
	L565.222,254.182z"/>
<path opacity="0.8" fill="#fff" enable-background="new    " d="M687.335,231.5l20.333-9.5l23.417,28.083L706.501,263
	C706.501,263,705.335,248.25,687.335,231.5z"/>
<polygon opacity="0.7" fill="#fff" enable-background="new    " points="687.335,230.747 707.668,222 732.25,250.25 
	753.5,239.25 690.25,168.5 843,99.75 861.75,118.5 873.5,113.5 829.75,71 686.25,133 693.25,141 649.666,160.625 666.5,181.292 
	642.25,191.583 665.333,218.39 "/>
<polygon opacity="0.7" fill="#fff" points="772.5,199 736,216 693.027,167.25 729.5,151.5 "/>
<polygon fill="#fff" points="792.75,221 774.25,200.875 737.5,217.25 755,238.25 "/>
<polygon opacity="0.7" fill="#fff" points="778.25,157.5 829.25,134.25 810.475,114.389 759.682,137.25 "/>
<polygon opacity="0.7" fill="#fff" points="830.5,133.5 861.75,118.5 843,99.75 811.75,114.389 "/>
<polygon opacity="0.7" fill="#fff" enable-background="new    " points="885.25,122.5 924.75,122.5 912,76.75 882.5,76.75 
	889.25,105.25 865.394,105.625 "/>
<polygon opacity="0.7" fill="#fff" enable-background="new    " points="802,302.667 861.75,274.334 863.333,276.334 
	952.667,230.747 937,174.333 905,174.333 895.072,134.667 788,183.75 801.667,197.667 816,191.583 825.667,200.875 873.5,178.667 
	908,214 832.667,250.25 826,244.667 772.5,271.498 "/>
<polygon opacity="0.5" fill="#fff" enable-background="new    " points="806.167,219.563 830.333,207.333 858.167,235.667 
	833.167,248.5 "/>
<polygon opacity="0.7" fill="#fff" points="827.833,201.667 873.5,181.167 904.334,212.167 859.501,235.667 "/>
<polygon opacity="0.7" fill="#fff" enable-background="new    " points="780.25,158.25 798.125,177.125 856.625,150.75 
	837.75,131.375 "/>
<polygon opacity="0.7" fill="#fff" enable-background="new    " points="839,131.375 857.75,150 892.375,133.5 873.5,114.875 "/>
<polygon opacity="0.7" fill="#fff" enable-background="new    " points="885.625,123.5 895.625,133.5 905.375,173.125 
	937.125,173.125 924.75,124 "/>
<polygon opacity="0.5" fill="#fff" enable-background="new    " points="714.75,323.25 740.5,355.75 747.5,330.5 751.25,329 
	772.5,318 743.625,284.25 722.5,294 719.75,298 "/>
<polygon opacity="0.7" fill="#fff" enable-background="new    " points="811.75,442.75 895.5,399.5 898.5,374.25 828.25,296.25 
	751.25,334 743.625,361.75 "/>
<path opacity="0.7" fill="#fff" enable-background="new    " d="M1018.25,313l-13,27.25l-109.622,58.176l2.872-24.176l-70.25-78
	l127-64C955.25,232.25,1002.5,271.25,1018.25,313z"/>
<polygon opacity="0.7" fill="#fff" enable-background="new    " points="193.5,223 118,64 0,112.5 24,175 37.5,200.875 54,194.5 
	87.5,267.668 "/>
<polygon opacity="0.7" fill="#fff" enable-background="new    " points="256,396.75 243,368 175.999,230.375 88,269.75 
	107,313.563 88,325 121,405.5 133,428 150,419.5 163.5,439 "/>
<polygon opacity="0.7" fill="#fff" points="204,272.667 244.333,255.001 221.5,212.834 181.333,229.668 "/>
<polygon opacity="0.7" fill="#fff" points="226.5,318.834 267.833,299.834 244.333,255.834 204.167,273.668 "/>
<path opacity="0.7" fill="#fff" enable-background="new    " d="M381.5,333.587L358,347l-9.5-28.166L329.5,284
	c0,0-6.25-44.25,20.5-58.75S412.25,196,412.25,196S423.25,274.424,381.5,333.587z"/>
<polygon opacity="0.7" fill="#fff" points="304,372 293.5,345 267.833,299.834 226.5,318.834 251.5,369 262.5,391.5 "/>
<path opacity="0.7" fill="#fff" enable-background="new    " d="M410,196c0,0,4.5-15.75-4-35.375S394.5,135.5,389,126
	s-14.375-20.875-14.375-20.875l-11-11.25l-11.75-10.125l-5.75-4.5l-6.625-4.5l-12.75-8.375l-8.125-4l-8.5-3.875L302,55l-6.375-2.625
	l-19.75-6.5l-32.25-6.375l-52.25-2.75L118.5,64l75,159l28-10.166L293.5,345l10.5,27l54-25l-9.5-28.166L329.5,284l-1.625-14.125
	l0.375-6.375l0.616-4.75l2.009-6.875c0,0,4.125-10.375,7.375-14.5S346,228,351.625,224.75S410,196,410,196z"/>
<path fill="#fff" d="M613.5,345"/>
</svg>
