<?xml version="1.0" encoding="UTF-8" standalone="no"?>
<svg
   xmlns:dc="http://purl.org/dc/elements/1.1/"
   xmlns:cc="http://creativecommons.org/ns#"
   xmlns:rdf="http://www.w3.org/1999/02/22-rdf-syntax-ns#"
   xmlns:svg="http://www.w3.org/2000/svg"
   xmlns="http://www.w3.org/2000/svg"
   viewBox="0 0 98.281197 98.270798"
   height="98.270798"
   width="98.281197"
   xml:space="preserve"
   id="svg2"
   version="1.1"><metadata
     id="metadata8"><rdf:RDF><cc:Work
         rdf:about=""><dc:format>image/svg+xml</dc:format><dc:type
           rdf:resource="http://purl.org/dc/dcmitype/StillImage" /></cc:Work></rdf:RDF></metadata><defs
     id="defs6"><clipPath
       id="clipPath18"
       clipPathUnits="userSpaceOnUse"><path
         id="path16"
         d="M 0,73.703 H 73.711 V 0 H 0 Z" /></clipPath></defs><g
     transform="matrix(1.3333333,0,0,-1.3333333,0,98.2708)"
     id="g10"><g
       id="g12"><g
         clip-path="url(#clipPath18)"
         id="g14"><g
           transform="translate(36.9375,66.293)"
           id="g20"><path
             id="path22"
             style="fill:#ff7700;fill-opacity:1;fill-rule:nonzero;stroke:none"
             d="m 0,0 c -0.391,0 -0.707,-0.317 -0.707,-0.707 0,-0.39 0.316,-0.707 0.707,-0.707 15.366,0 27.903,-12.315 28.281,-27.593 h -3.836 c -0.388,0 -0.706,-0.316 -0.706,-0.706 0,-0.39 0.318,-0.706 0.706,-0.706 h 3.836 C 27.91,-45.413 15.827,-57.544 0.852,-57.99 v 3.903 c 0,0.391 -0.317,0.707 -0.707,0.707 -0.39,0 -0.707,-0.316 -0.707,-0.707 v -3.911 c -15.109,0.297 -27.347,12.487 -27.719,27.579 h 4.061 c 0.39,0 0.707,0.316 0.707,0.706 0,0.39 -0.317,0.706 -0.707,0.706 h -4.065 c 0.136,5.63 1.899,10.978 5.131,15.563 l 0.419,-3.899 c 0.038,-0.362 0.344,-0.631 0.701,-0.631 0.025,0 0.05,0.002 0.077,0.004 0.387,0.042 0.668,0.39 0.626,0.779 l -0.574,5.345 c -0.041,0.382 -0.38,0.657 -0.764,0.628 l -5.11,-0.448 c -0.389,-0.034 -0.676,-0.378 -0.642,-0.767 0.034,-0.388 0.374,-0.678 0.765,-0.641 l 3.232,0.284 c -3.463,-4.981 -5.288,-10.808 -5.288,-16.923 0,-16.383 13.329,-29.711 29.712,-29.711 16.383,0 29.712,13.328 29.712,29.711 C 29.712,-13.329 16.383,0 0,0" /></g><g
           transform="translate(36.8584,1.0596)"
           id="g24"><path
             id="path26"
             style="fill:#ff7700;fill-opacity:1;fill-rule:nonzero;stroke:none"
             d="m 0,0 c -19.739,0 -35.799,16.06 -35.799,35.8 0,19.731 16.06,35.784 35.799,35.784 19.737,0 35.793,-16.053 35.793,-35.784 C 35.793,16.06 19.737,0 0,0 m 0,72.644 c -20.323,0 -36.858,-16.529 -36.858,-36.844 0,-20.325 16.535,-36.86 36.858,-36.86 20.32,0 36.853,16.535 36.853,36.86 C 36.853,56.115 20.32,72.644 0,72.644" /></g><g
           transform="translate(26.1338,60.1875)"
           id="g28"><path
             id="path30"
             style="fill:#ff7700;fill-opacity:1;fill-rule:nonzero;stroke:none"
             d="m 0,0 c 0.056,-0.138 0.188,-0.221 0.327,-0.221 0.045,0 0.09,0.009 0.133,0.027 0.182,0.073 0.268,0.279 0.193,0.46 L 0.255,1.247 C 0.181,1.428 -0.026,1.516 -0.205,1.441 -0.386,1.367 -0.473,1.161 -0.399,0.981 Z" /></g><g
           transform="translate(32.0674,45.6025)"
           id="g32"><path
             id="path34"
             style="fill:#ff7700;fill-opacity:1;fill-rule:nonzero;stroke:none"
             d="m 0,0 c 0.056,-0.138 0.188,-0.221 0.327,-0.221 0.045,0 0.09,0.008 0.133,0.027 0.182,0.073 0.268,0.279 0.193,0.46 L -0.088,2.089 C -0.161,2.271 -0.368,2.356 -0.548,2.282 -0.729,2.21 -0.815,2.004 -0.741,1.822 Z" /></g><g
           transform="translate(33.5508,41.9561)"
           id="g36"><path
             id="path38"
             style="fill:#ff7700;fill-opacity:1;fill-rule:nonzero;stroke:none"
             d="m 0,0 c 0.056,-0.138 0.187,-0.221 0.327,-0.221 0.044,0 0.089,0.009 0.133,0.027 0.181,0.073 0.268,0.279 0.194,0.46 L -0.088,2.089 C -0.161,2.27 -0.368,2.355 -0.548,2.284 -0.729,2.21 -0.815,2.004 -0.742,1.823 Z" /></g><g
           transform="translate(35.0342,38.3096)"
           id="g40"><path
             id="path42"
             style="fill:#ff7700;fill-opacity:1;fill-rule:nonzero;stroke:none"
             d="m 0,0 c 0.056,-0.138 0.188,-0.22 0.327,-0.22 0.045,0 0.09,0.008 0.133,0.027 0.182,0.072 0.268,0.278 0.194,0.46 L -0.088,2.089 C -0.161,2.27 -0.368,2.356 -0.548,2.283 -0.729,2.21 -0.815,2.004 -0.741,1.822 Z" /></g><g
           transform="translate(27.6172,56.541)"
           id="g44"><path
             id="path46"
             style="fill:#ff7700;fill-opacity:1;fill-rule:nonzero;stroke:none"
             d="m 0,0 c 0.056,-0.138 0.187,-0.22 0.327,-0.22 0.044,0 0.09,0.008 0.133,0.027 0.181,0.072 0.268,0.278 0.194,0.46 L -0.088,2.089 C -0.161,2.27 -0.369,2.356 -0.548,2.283 -0.729,2.21 -0.815,2.004 -0.742,1.822 Z" /></g><g
           transform="translate(29.1006,52.8945)"
           id="g48"><path
             id="path50"
             style="fill:#ff7700;fill-opacity:1;fill-rule:nonzero;stroke:none"
             d="m 0,0 c 0.056,-0.137 0.188,-0.22 0.327,-0.22 0.045,0 0.09,0.009 0.133,0.026 0.182,0.074 0.268,0.28 0.193,0.461 L -0.088,2.089 C -0.161,2.271 -0.368,2.357 -0.548,2.283 -0.729,2.21 -0.815,2.004 -0.741,1.823 Z" /></g><g
           transform="translate(30.584,49.249)"
           id="g52"><path
             id="path54"
             style="fill:#ff7700;fill-opacity:1;fill-rule:nonzero;stroke:none"
             d="m 0,0 c 0.056,-0.138 0.187,-0.221 0.327,-0.221 0.044,0 0.089,0.009 0.133,0.027 0.181,0.073 0.269,0.279 0.194,0.46 L -0.088,2.089 C -0.161,2.27 -0.369,2.356 -0.548,2.283 -0.729,2.209 -0.815,2.004 -0.742,1.822 Z" /></g><g
           transform="translate(36.1758,35.5049)"
           id="g56"><path
             id="path58"
             style="fill:#ff7700;fill-opacity:1;fill-rule:nonzero;stroke:none"
             d="m 0,0 c 0.055,-0.135 0.186,-0.22 0.326,-0.22 0.023,0 0.045,0.002 0.069,0.007 0.166,0.032 0.285,0.177 0.285,0.347 V 1.192 C 0.68,1.388 0.521,1.546 0.326,1.546 0.227,1.546 0.136,1.505 0.072,1.437 -0.014,1.475 -0.113,1.479 -0.206,1.441 -0.387,1.368 -0.474,1.162 -0.4,0.982 Z" /></g><g
           transform="translate(36.502,47.8643)"
           id="g60"><path
             id="path62"
             style="fill:#ff7700;fill-opacity:1;fill-rule:nonzero;stroke:none"
             d="M 0,0 C 0.195,0 0.354,0.158 0.354,0.354 V 2.657 C 0.354,2.853 0.195,3.011 0,3.011 -0.195,3.011 -0.354,2.853 -0.354,2.657 V 0.354 C -0.354,0.158 -0.195,0 0,0" /></g><g
           transform="translate(36.502,38.6484)"
           id="g64"><path
             id="path66"
             style="fill:#ff7700;fill-opacity:1;fill-rule:nonzero;stroke:none"
             d="M 0,0 C 0.195,0 0.354,0.158 0.354,0.354 V 2.657 C 0.354,2.853 0.195,3.011 0,3.011 -0.195,3.011 -0.354,2.853 -0.354,2.657 V 0.354 C -0.354,0.158 -0.195,0 0,0" /></g><g
           transform="translate(36.502,43.2568)"
           id="g68"><path
             id="path70"
             style="fill:#ff7700;fill-opacity:1;fill-rule:nonzero;stroke:none"
             d="M 0,0 C 0.195,0 0.354,0.157 0.354,0.353 V 2.656 C 0.354,2.852 0.195,3.01 0,3.01 -0.195,3.01 -0.354,2.852 -0.354,2.656 V 0.353 C -0.354,0.157 -0.195,0 0,0" /></g><g
           transform="translate(36.502,52.4727)"
           id="g72"><path
             id="path74"
             style="fill:#ff7700;fill-opacity:1;fill-rule:nonzero;stroke:none"
             d="m 0,0 c 0.195,0 0.354,0.157 0.354,0.353 v 1.06 C 0.354,1.608 0.195,1.766 0,1.766 -0.195,1.766 -0.354,1.608 -0.354,1.413 V 0.353 C -0.354,0.157 -0.195,0 0,0" /></g></g></g></g></svg>