<?xml version="1.0" encoding="utf-8"?>
<!-- Generator: Adobe Illustrator 16.0.1, SVG Export Plug-In . SVG Version: 6.00 Build 0)  -->
<!DOCTYPE svg PUBLIC "-//W3C//DTD SVG 1.1//EN" "http://www.w3.org/Graphics/SVG/1.1/DTD/svg11.dtd">
<svg version="1.1" id="Layer_1" xmlns="http://www.w3.org/2000/svg" xmlns:xlink="http://www.w3.org/1999/xlink" x="0px" y="0px"
	 width="23.812px" height="13.729px" viewBox="0 0 23.812 13.729" enable-background="new 0 0 23.812 13.729" xml:space="preserve">
<path fill-rule="evenodd" clip-rule="evenodd" fill="#FFFFFF" d="M20.417,8.652c1.461,1.345,2.48,2.44,3.057,3.286
	c0.27,0.423,0.355,0.798,0.26,1.124c-0.096,0.328-0.317,0.491-0.664,0.491l-3.806,0.173c-0.539,0.038-1.192-0.289-1.961-0.98
	c-0.77-0.691-1.289-1.269-1.558-1.73c-0.154-0.269-0.433-0.423-0.836-0.462c-0.403-0.037-0.663,0.155-0.778,0.577l-0.116,1.5
	c-0.038,0.308-0.154,0.538-0.346,0.692c-0.193,0.153-0.355,0.24-0.49,0.26c-0.135,0.019-0.355,0.048-0.664,0.087
	c-1,0.038-1.874-0.011-2.624-0.146c-0.75-0.134-1.433-0.412-2.048-0.835c-0.615-0.424-1.105-0.808-1.471-1.154
	c-0.365-0.346-0.894-0.903-1.586-1.673C2.903,7.171,1.5,4.845,0.577,2.884C0.231,2.115,0.039,1.461,0,0.923
	c0.154-0.154,0.442-0.25,0.866-0.288c0.423-0.039,1.038-0.048,1.845-0.029c0.808,0.02,1.288,0.029,1.442,0.029
	C4.538,0.596,4.845,0.808,5.076,1.27c0.961,2.151,1.903,3.825,2.826,5.017c0.616,0.577,1.02,0.481,1.211-0.288
	c0.078,0,0.116-0.942,0.116-2.826C9.267,1.98,8.786,1.23,7.787,0.923C8.017,0.307,8.825,0,10.209,0c0.346,0,0.769,0.019,1.269,0.058
	c0.5,0.038,0.769,0.058,0.807,0.058c1.154,0,1.731,0.461,1.731,1.385c0,0.114-0.02,0.394-0.058,0.836
	c-0.039,0.441-0.068,0.865-0.087,1.269c-0.019,0.404-0.029,0.827-0.029,1.27S13.9,5.69,14.016,5.999
	c0.115,0.307,0.269,0.499,0.461,0.576c0.211-0.154,0.414-0.299,0.605-0.433c0.193-0.135,0.395-0.355,0.606-0.664
	c0.211-0.307,0.374-0.538,0.49-0.691c0.115-0.153,0.288-0.442,0.519-0.865s0.366-0.692,0.404-0.808
	c0.039-0.115,0.173-0.413,0.403-0.894C17.735,1.739,17.851,1.5,17.851,1.5l0.086-0.174c0.154-0.346,0.279-0.548,0.375-0.605
	c0.096-0.058,0.336-0.086,0.721-0.086h3.576c0.423,0,0.673,0.009,0.75,0.028c0.077,0.02,0.193,0.105,0.346,0.26
	c0.27,0.347,0.029,1.096-0.721,2.249c-0.75,1.153-1.471,2.114-2.163,2.885C19.86,7.133,19.726,7.997,20.417,8.652z"/>
</svg>
